<svg xmlns="http://www.w3.org/2000/svg" width="1080" height="429.756" viewBox="0 0 1080 429.756">
  <g>
    <g>
      <path d="M349.724,169.875a26.468,26.468,0,1,1-26.687,26.466A26.58,26.58,0,0,1,349.724,169.875Zm0,42.522c8.432,0,15.4-6.672,15.4-16.056s-6.965-16.056-15.4-16.056c-8.5,0-15.47,6.672-15.47,16.056S341.219,212.4,349.724,212.4Z" fill="#fff"/>
      <path d="M418.2,201.84V222H407.349V201.768c0-5.133-1.466-9.166-6.306-9.166-4.765,0-6.231,4.18-6.231,9.238V222H383.888V184.391h10.924v5.133c2.42-3.739,5.938-5.939,10.044-5.939,5.719,0,9.605,2.492,11.511,6.3,2.86-5.5,8.285-6.3,11.877-6.3,10.558,0,13.418,8.431,13.418,17.963V222H430.737V201.768c0-5.133-1.466-9.166-6.305-9.166C419.667,192.6,418.2,196.782,418.2,201.84Z" fill="#fff"/>
      <path d="M456.32,168.188c3.887,0,6.966,2.567,6.966,6.233,0,3.592-3.079,6.084-6.966,6.084-3.958,0-6.89-2.492-6.89-6.084C449.43,170.755,452.362,168.188,456.32,168.188ZM450.749,222V184.391h10.925V222Z" fill="#fff"/>
      <path d="M489.9,183.585c3.887,0,8.946.806,15.4,5.572l-4.986,7.991a15.039,15.039,0,0,0-9.9-3.739c-6.38,0-10.632,4.033-10.632,9.751s4.252,9.751,10.632,9.751a15.039,15.039,0,0,0,9.9-3.739l4.986,7.991c-6.452,4.766-11.511,5.572-15.4,5.572-12.9,0-21.042-8.431-21.042-19.575S477,183.585,489.9,183.585Z" fill="#fff"/>
      <path d="M516.658,208.732c1.1,4.326,4.911,5.645,7.917,5.645,2.421,0,4.913-.953,4.913-2.859,0-1.246-.733-2.127-2.786-2.86l-6.6-2.786c-8.944-3.151-9.384-9.09-9.384-10.776,0-7.552,6.672-11.511,14.736-11.511,4.327,0,10.046,1.173,13.564,7.919l-8.431,3.884a5.257,5.257,0,0,0-5.352-3.592c-2.053,0-4.18,1.174-4.18,3.08,0,1.612,1.613,2.492,3.519,3.225l5.646,2.2c8.872,2.566,9.678,8.357,9.678,10.851,0,7.7-7.113,11.657-15.4,11.657-5.572,0-13.2-1.76-15.763-9.6Z" fill="#fff"/>
      <path d="M567.1,222H547.89V170.681H567.1c16.79,0,27.275,11.51,27.275,25.66S583.887,222,567.1,222Zm0-42.3h-7.845v33.286H567.1c9.752,0,15.837-7.478,15.837-16.644S576.849,179.7,567.1,179.7Z" fill="#fff"/>
      <path d="M640.852,184.391V222H629.927v-5.5a13.468,13.468,0,0,1-11.8,6.305c-11.438,0-18.331-8.8-18.331-19.795,0-10.559,6.38-19.429,18.11-19.429a15.057,15.057,0,0,1,12.024,5.939v-5.133ZM620.4,213.938c5.354,0,9.826-3.447,9.826-10.263,0-6.966-4.18-11.22-10.118-11.22-6.012,0-9.384,4.84-9.384,10.632C610.719,209.1,614.384,213.938,620.4,213.938Z" fill="#fff"/>
      <path d="M663.725,184.391h10.411v8.579H663.725v17.6c0,1.612.659,3.3,2.786,3.3s2.859-1.76,2.859-3.521a11.853,11.853,0,0,0-.514-3.225h8.652a11.055,11.055,0,0,1,.88,4.472c0,5.572-3.666,11.218-12.538,11.218-6.6,0-13.051-2.346-13.051-13.271V192.97h-5.645v-8.579h6.452l1.687-9.238h8.432Z" fill="#fff"/>
      <path d="M722.67,184.391V222H711.745v-5.5a13.469,13.469,0,0,1-11.8,6.305c-11.438,0-18.33-8.8-18.33-19.795,0-10.559,6.38-19.429,18.11-19.429a15.058,15.058,0,0,1,12.024,5.939v-5.133Zm-20.457,29.547c5.353,0,9.825-3.447,9.825-10.263,0-6.966-4.179-11.22-10.117-11.22-6.013,0-9.385,4.84-9.385,10.632C692.536,209.1,696.2,213.938,702.213,213.938Z" fill="#fff"/>
      <path d="M739.53,205.725c1.32,4.547,4.545,7.04,9.311,7.04,4.033,0,7.7-1.468,7.7-5.28,0-1.978-1.1-3.81-5.939-5.5l-5.572-1.906c-11.364-3.886-13.05-11-13.05-15.249,0-9.24,7.258-14.957,17.3-14.957,7.918,0,14.077,3.811,17.156,11.218l-9.238,4.619c-2.2-5.207-5.793-5.793-7.918-5.793-3.52,0-6.233,1.392-6.233,4.766,0,1.319.368,3.739,5.5,5.5l5.427,1.906c11.509,3.592,13.563,10.485,13.636,15.176,0,10.777-9.385,15.543-18.4,15.543-9.825,0-18.769-5.572-19.8-15.1Z" fill="#fff"/>
      <path d="M793.928,183.585c3.886,0,8.945.806,15.4,5.572l-4.986,7.991a15.04,15.04,0,0,0-9.9-3.739c-6.38,0-10.632,4.033-10.632,9.751s4.252,9.751,10.632,9.751a15.04,15.04,0,0,0,9.9-3.739l4.986,7.991c-6.452,4.766-11.511,5.572-15.4,5.572-12.9,0-21.041-8.431-21.041-19.575S781.024,183.585,793.928,183.585Z" fill="#fff"/>
      <path d="M821.421,168.188c3.886,0,6.964,2.567,6.964,6.233,0,3.592-3.078,6.084-6.964,6.084-3.96,0-6.893-2.492-6.893-6.084C814.528,170.755,817.461,168.188,821.421,168.188ZM815.849,222V184.391h10.923V222Z" fill="#fff"/>
      <path d="M873.034,215.4a23.585,23.585,0,0,1-17.522,7.405c-13.932,0-21.557-8.726-21.557-19.428,0-11.071,8.652-19.8,20.749-19.8,10.411,0,20.384,7.184,20.384,22.14H844.807c.22,4.693,4.546,8.14,11.511,8.14a15.9,15.9,0,0,0,10.412-4.474Zm-28.007-16.277H863.87c-.734-4.837-5.645-6.672-9.311-6.672C851.039,192.455,846.346,194.07,845.027,199.127Z" fill="#fff"/>
      <path d="M881.464,184.391h10.924v5.133a13.367,13.367,0,0,1,11.658-5.939c10.558,0,13.418,8.431,13.418,17.963V222H906.538V201.768c0-5.206-1.906-9.166-6.964-9.166s-7.186,4.033-7.186,9.238V222H881.464Z" fill="#fff"/>
      <path d="M945.1,183.585c3.886,0,8.946.806,15.4,5.572l-4.987,7.991a15.039,15.039,0,0,0-9.9-3.739c-6.38,0-10.631,4.033-10.631,9.751s4.251,9.751,10.631,9.751a15.039,15.039,0,0,0,9.9-3.739l4.987,7.991c-6.452,4.766-11.512,5.572-15.4,5.572-12.9,0-21.041-8.431-21.041-19.575S932.2,183.585,945.1,183.585Z" fill="#fff"/>
      <path d="M1002.874,215.4a23.588,23.588,0,0,1-17.523,7.405c-13.931,0-21.557-8.726-21.557-19.428,0-11.071,8.652-19.8,20.749-19.8,10.412,0,20.384,7.184,20.384,22.14H974.646c.221,4.693,4.546,8.14,11.512,8.14a15.9,15.9,0,0,0,10.411-4.474Zm-28.007-16.277h18.842c-.734-4.837-5.645-6.672-9.311-6.672C980.878,192.455,976.185,194.07,974.867,199.127Z" fill="#fff"/>
      <path d="M343.015,251.89c3.988.39,5.982,3.027,5.982,6.124,0,3.988-3.347,6.623-8.3,6.623H330.694V239.711h8.867c4.736,0,8.226,2.422,8.226,6.41A5.773,5.773,0,0,1,343.015,251.89Zm-4.878-1.176c4.344,0,5.982-2.172,5.982-4.343,0-2.458-2.137-3.74-4.558-3.74h-5.306v8.083Zm-3.882,2.779v8.224H340.7c2.671,0,4.63-1.5,4.63-3.809,0-2.279-1.888-4.415-6.446-4.415Z" fill="#fff"/>
      <path d="M358.58,264.637h-3.561V239.711h3.561Z" fill="#fff"/>
      <path d="M377.525,239.319A12.856,12.856,0,1,1,364.6,252.174,12.911,12.911,0,0,1,377.525,239.319Zm0,22.5a9.656,9.656,0,1,0-9.293-9.649A9.4,9.4,0,0,0,377.525,261.823Z" fill="#fff"/>
      <path d="M400.677,244.981l-1.709,19.656h-3.6l2.35-24.926h3.988l8.3,19.87,8.3-19.87h3.988l2.35,24.926h-3.6l-1.709-19.656-8.012,19.337h-2.635Z" fill="#fff"/>
      <path d="M433.976,259.475l-1.922,5.162h-3.668l9.579-24.926h4.13l9.615,24.926h-3.6l-1.958-5.162Zm11.11-2.885-5.056-13.46-4.985,13.46Z" fill="#fff"/>
      <path d="M456.522,264.637V239.711h10.4c4.77,0,7.513,3.632,7.513,7.834,0,3.7-2.137,6.8-5.877,7.515.251,2.706,1.96,6.942,4.737,6.942a4.2,4.2,0,0,0,2.92-1.139l1.247,2.421a6.02,6.02,0,0,1-4.38,1.746c-5.84,0-7.657-6.8-7.9-9.828h-5.092v9.435Zm9.65-12.284c2.848,0,4.557-1.994,4.557-4.842,0-2.886-1.745-4.88-4.557-4.88h-6.089v9.722Z" fill="#fff"/>
      <path d="M494.165,239.711h3.846v.393l-9.187,12.534,4.665,6.3c1.1,1.532,2.421,2.991,3.952,2.991a3.928,3.928,0,0,0,2.635-.926l1.282,2.493c-1,1.105-3.169,1.532-4.308,1.532-3.669,0-5.663-3.028-6.837-4.773l-4.843-6.695v11.075h-3.561V239.711h3.561V251.89Z" fill="#fff"/>
      <path d="M521.194,264.637H505.349V239.711h15.845v2.92H508.91v8.333h10.717v2.92H508.91v7.833h12.284Z" fill="#fff"/>
      <path d="M527.289,264.637V239.711h10.4c4.77,0,7.512,3.632,7.512,7.834,0,3.7-2.136,6.8-5.876,7.515.25,2.706,1.959,6.942,4.737,6.942a4.208,4.208,0,0,0,2.92-1.139l1.247,2.421a6.02,6.02,0,0,1-4.381,1.746c-5.84,0-7.657-6.8-7.9-9.828H530.85v9.435Zm9.649-12.284c2.849,0,4.558-1.994,4.558-4.842,0-2.886-1.746-4.88-4.558-4.88H530.85v9.722Z" fill="#fff"/>
      <path d="M570.843,264.637H562.9V239.711h7.941c7.976,0,12.819,5.59,12.819,12.463S578.819,264.637,570.843,264.637Zm0-22.006h-4.381v19.086h4.381c5.7,0,9.185-4.273,9.185-9.543S576.54,242.631,570.843,242.631Z" fill="#fff"/>
      <path d="M593.281,264.637h-3.56V239.711h3.56Z" fill="#fff"/>
      <path d="M602.185,257.943c.428,2.065,2.67,3.917,5.767,3.917,3.276,0,5.27-1.638,5.27-3.809,0-1.96-1.636-3.17-3.667-3.919l-3.739-1.282c-4.913-1.6-5.767-4.485-5.767-6.658,0-4.273,3.773-6.873,8.011-6.873,4.45,0,7.406,2.458,8.153,5.913l-3.2.96c-.606-2.492-2.386-3.667-4.95-3.667-2.387,0-4.416,1.317-4.416,3.6,0,1.068.32,2.456,3.242,3.561l3.772,1.424c4.1,1.282,6.055,4.06,6.055,6.695,0,4.415-3.491,7.229-8.688,7.229-4.985,0-8.334-2.779-9.189-6.232Z" fill="#fff"/>
      <path d="M634.307,239.319a12.863,12.863,0,0,1,8.227,2.671l-1.39,2.672a12.252,12.252,0,0,0-6.837-2.137c-6.232,0-9.828,4.416-9.828,9.649s3.6,9.649,9.828,9.649a12.259,12.259,0,0,0,6.837-2.136l1.39,2.671a12.858,12.858,0,0,1-8.227,2.672c-8.474,0-13.46-5.913-13.46-12.856S625.833,239.319,634.307,239.319Z" fill="#fff"/>
      <path d="M658.49,239.319a12.856,12.856,0,1,1-12.925,12.855A12.911,12.911,0,0,1,658.49,239.319Zm0,22.5a9.656,9.656,0,1,0-9.293-9.649A9.4,9.4,0,0,0,658.49,261.823Z" fill="#fff"/>
      <path d="M682.637,264.637l-8.688-24.926h3.633l6.872,20.546,6.872-20.546h3.633l-8.688,24.926Z" fill="#fff"/>
      <path d="M716.079,264.637H700.233V239.711h15.846v2.92H703.794v8.333h10.719v2.92H703.794v7.833h12.285Z" fill="#fff"/>
      <path d="M722.171,264.637V239.711h10.4c4.773,0,7.514,3.632,7.514,7.834,0,3.7-2.137,6.8-5.875,7.515.249,2.706,1.958,6.942,4.735,6.942a4.2,4.2,0,0,0,2.92-1.139l1.246,2.421a6.013,6.013,0,0,1-4.379,1.746c-5.84,0-7.655-6.8-7.9-9.828h-5.093v9.435Zm9.651-12.284c2.848,0,4.558-1.994,4.558-4.842,0-2.886-1.744-4.88-4.558-4.88h-6.09v9.722Z" fill="#fff"/>
      <path d="M743.327,240.1v-.393h3.917l7.264,11.645,7.336-11.645h3.917v.393l-9.436,14.278v10.255h-3.561V254.382Z" fill="#fff"/>
    </g>
    <g>
      <g>
        <path d="M114.692,193.938C97.133,178,85.91,157.918,85.91,142.15c0-32.622,27.323-44.245,52.9-44.245,17.606,0,36.555,5.062,53.673,14.012a127.914,127.914,0,0,1,14.461-5.585c-20.985-12.966-45.522-20.454-68.134-20.454-39.439,0-64.922,22.088-64.922,56.272,0,20.041,13.837,45.444,37.932,65.119A75.089,75.089,0,0,1,114.692,193.938Z" fill="#faa51a"/>
        <path d="M200.6,226.355a128.787,128.787,0,0,1-75.734-24.166q-.357,1.573-.63,3.14l0,.014q-.264,1.52-.444,3.029c-.009.072-.017.143-.025.215q-.169,1.455-.262,2.9c0,.088-.008.176-.013.264-.056.972-.089,1.94-.089,2.9,0,.366.018.715.022,1.077A140.425,140.425,0,0,0,200.6,238.382c2.706,0,5.393-.108,8.059-.3a62.254,62.254,0,0,0,4.96-12.588A100.543,100.543,0,0,1,200.6,226.355Z" fill="#faa51a"/>
      </g>
      <g>
        <path d="M160.767,131.488l-7.131-.295c-25.09,0-47.759,11.051-63.8,28.745a78.292,78.292,0,0,0,5.949,11.551c12.639-15.659,30.87-26.154,51.412-27.983A164.939,164.939,0,0,1,160.767,131.488Z" fill="#51c8ed"/>
        <path d="M219.972,115.465l-.146-.134A101.7,101.7,0,0,0,205.3,119.58l7.189,5.3c28.035,22.26,43.475,54.434,43.475,90.594,0,62.782-54.426,92.031-91.209,92.031-56.566,0-87.088-43.384-87.088-84.2a82.864,82.864,0,0,1,10.8-41.1,99.111,99.111,0,0,1-6.945-11.619,94.578,94.578,0,0,0-15.878,52.717c0,46.651,34.738,96.231,99.115,96.231,23.768,0,49.3-9.745,68.288-26.067,15.943-13.7,34.948-38.355,34.948-77.991C267.994,175.573,250.938,140.055,219.972,115.465Z" fill="#51c8ed"/>
      </g>
      <g>
        <path d="M236.026,101.532c-57.085,0-124.655,61.318-124.655,113.122H123.4c0-36.4,40-79.475,81.905-95.074h0q3.625-1.348,7.26-2.417l.006,0a83.792,83.792,0,0,1,23.455-3.6c23.645,0,48.776,16.95,48.776,48.364,0,14.13-6.672,27.543-17.647,38.438a136.061,136.061,0,0,1,.837,15.021c17.618-14.02,28.837-33.115,28.837-53.459C296.829,132.647,275.519,101.532,236.026,101.532Z" fill="#f2789d"/>
        <path d="M255.824,209.678a95.66,95.66,0,0,1-29.292,13.277,71.737,71.737,0,0,1-3.778,13.19,109.819,109.819,0,0,0,32.883-12.377c.215-2.7.33-5.457.33-8.29C255.967,213.532,255.913,211.6,255.824,209.678Z" fill="#f2789d"/>
      </g>
      <path d="M176.9,134.459a153.113,153.113,0,0,0-12.6,9.566c37.533,5.132,51.25,37.423,51.25,67.825a58.49,58.49,0,0,1-7.2,26.814h0c-5.44,10.019-18.285,26.827-43.179,26.827-16.792,0-41.773-13.538-41.773-50.836H111.371c0,24.983,9.867,39.824,18.144,47.875,9.792,9.525,22.788,14.988,35.656,14.988,22.7,0,42.272-12.04,53.705-33.037l0,0a69.9,69.9,0,0,0,8.7-32.632C227.582,171.992,208.323,143.623,176.9,134.459Z" fill="#fff"/>
    </g>
  </g>
</svg>
