<svg xmlns="http://www.w3.org/2000/svg" width="500" height="500" viewBox="0 0 500 500">
  <g>
    <g>
      <path d="M165.1,231.715c-22.951-20.826-37.619-47.077-37.619-67.686,0-42.636,35.712-57.828,69.134-57.828,23.011,0,47.777,6.616,70.149,18.314a166.982,166.982,0,0,1,18.9-7.3c-27.426-16.946-59.5-26.733-89.049-26.733-51.547,0-84.852,28.868-84.852,73.546,0,26.193,18.084,59.394,49.575,85.109A98.214,98.214,0,0,1,165.1,231.715Z" fill="#faa51a"/>
      <path d="M277.38,274.083c-36.167,0-70.82-11.139-98.984-31.583q-.466,2.057-.823,4.1l0,.019q-.346,1.986-.581,3.958c-.012.094-.022.187-.033.281q-.222,1.9-.341,3.789c-.008.115-.011.23-.018.345-.073,1.27-.117,2.536-.117,3.8,0,.479.024.936.03,1.409a183.53,183.53,0,0,0,100.87,29.6c3.537,0,7.049-.14,10.532-.4a81.3,81.3,0,0,0,6.484-16.452A131.6,131.6,0,0,1,277.38,274.083Z" fill="#faa51a"/>
    </g>
    <g>
      <path d="M225.322,150.094,216,149.709c-32.792,0-62.42,14.443-83.39,37.569a102.341,102.341,0,0,0,7.775,15.1c16.518-20.466,40.346-34.183,67.194-36.574A215.494,215.494,0,0,1,225.322,150.094Z" fill="#51c8ed"/>
      <path d="M302.7,129.152l-.191-.176a133.167,133.167,0,0,0-18.981,5.554l9.4,6.933c36.641,29.093,56.82,71.143,56.82,118.405,0,82.054-71.133,120.283-119.208,120.283-73.932,0-113.823-56.7-113.823-110.053a108.3,108.3,0,0,1,14.111-53.715,129.593,129.593,0,0,1-9.078-15.185A123.605,123.605,0,0,0,101,270.1c0,60.971,45.4,125.772,129.542,125.772,31.064,0,64.429-12.737,89.251-34.069,20.837-17.909,45.676-50.13,45.676-101.933C365.465,207.712,343.174,161.29,302.7,129.152Z" fill="#51c8ed"/>
    </g>
    <g>
      <path d="M323.683,110.942c-74.609,0-162.921,80.142-162.921,147.848H176.48c0-47.567,52.274-103.871,107.05-124.26h0q4.737-1.762,9.489-3.159l.007,0a109.484,109.484,0,0,1,30.655-4.707c30.905,0,63.75,22.154,63.75,63.212,0,18.467-8.72,36-23.065,50.236a177.6,177.6,0,0,1,1.1,19.633c23.026-18.323,37.689-43.28,37.689-69.869C403.152,151.609,375.3,110.942,323.683,110.942Z" fill="#f2789d"/>
      <path d="M349.56,252.288a125.069,125.069,0,0,1-38.285,17.352,93.715,93.715,0,0,1-4.937,17.239A143.565,143.565,0,0,0,349.315,270.7c.281-3.524.431-7.133.431-10.835C349.746,257.325,349.676,254.8,349.56,252.288Z" fill="#f2789d"/>
    </g>
    <path d="M246.412,153.977a200.232,200.232,0,0,0-16.467,12.5c49.055,6.707,66.984,48.911,66.984,88.646,0,11.223-3.432,23.989-9.415,35.045l0,0c-7.109,13.1-23.9,35.064-56.434,35.064-21.946,0-54.6-17.695-54.6-66.443H160.762c0,32.652,12.9,52.05,23.714,62.572,12.8,12.45,29.784,19.59,46.6,19.59,29.67,0,55.249-15.737,70.193-43.179l0,0c7.333-13.506,11.372-28.652,11.372-42.65C312.647,203.032,287.476,165.954,246.412,153.977Z" fill="#ffff"/>
  </g>
</svg>
